<mxfile host="65bd71144e">
    <diagram id="7jDrbN-kZI5z4kWxKYkB" name="Page-1">
        <mxGraphModel dx="2107" dy="2727" grid="1" gridSize="10" guides="1" tooltips="1" connect="1" arrows="1" fold="1" page="1" pageScale="1" pageWidth="850" pageHeight="1100" math="0" shadow="0">
            <root>
                <mxCell id="0"/>
                <mxCell id="1" parent="0"/>
                <mxCell id="21" value="" style="edgeStyle=none;html=1;" edge="1" parent="1" source="2" target="4">
                    <mxGeometry relative="1" as="geometry"/>
                </mxCell>
                <mxCell id="2" value="UCharacterMovementComponent" style="html=1;" vertex="1" parent="1">
                    <mxGeometry x="105" y="290" width="210" height="50" as="geometry"/>
                </mxCell>
                <mxCell id="4" value="UALSCharacterMovementComponent" style="html=1;" vertex="1" parent="1">
                    <mxGeometry x="90" y="400" width="240" height="50" as="geometry"/>
                </mxCell>
                <mxCell id="5" value="&amp;lt;&amp;lt;extend&amp;gt;&amp;gt;" style="edgeStyle=none;html=1;startArrow=open;endArrow=none;startSize=12;verticalAlign=bottom;dashed=1;labelBackgroundColor=none;entryX=0.5;entryY=1;entryDx=0;entryDy=0;exitX=0.5;exitY=0;exitDx=0;exitDy=0;" edge="1" parent="1" source="4" target="2">
                    <mxGeometry width="160" relative="1" as="geometry">
                        <mxPoint x="495" y="580" as="sourcePoint"/>
                        <mxPoint x="655" y="580" as="targetPoint"/>
                    </mxGeometry>
                </mxCell>
                <mxCell id="7" value="AALSBaseCharacter" style="html=1;" vertex="1" parent="1">
                    <mxGeometry x="385" y="290" width="210" height="50" as="geometry"/>
                </mxCell>
                <mxCell id="8" value="AALSCharacter" style="html=1;" vertex="1" parent="1">
                    <mxGeometry x="410" y="400" width="160" height="50" as="geometry"/>
                </mxCell>
                <mxCell id="9" value="&amp;lt;&amp;lt;extend&amp;gt;&amp;gt;" style="edgeStyle=none;html=1;startArrow=open;endArrow=none;startSize=12;verticalAlign=bottom;dashed=1;labelBackgroundColor=none;entryX=0.5;entryY=1;entryDx=0;entryDy=0;exitX=0.5;exitY=0;exitDx=0;exitDy=0;" edge="1" parent="1" source="8" target="7">
                    <mxGeometry width="160" relative="1" as="geometry">
                        <mxPoint x="760" y="580" as="sourcePoint"/>
                        <mxPoint x="920" y="580" as="targetPoint"/>
                    </mxGeometry>
                </mxCell>
                <mxCell id="12" value="" style="endArrow=none;startArrow=diamondThin;endFill=0;startFill=1;html=1;verticalAlign=bottom;labelBackgroundColor=none;strokeWidth=1;startSize=8;endSize=8;entryX=0;entryY=0.5;entryDx=0;entryDy=0;exitX=1;exitY=0.5;exitDx=0;exitDy=0;" edge="1" parent="1" source="4" target="8">
                    <mxGeometry width="160" relative="1" as="geometry">
                        <mxPoint x="670" y="425" as="sourcePoint"/>
                        <mxPoint x="590" y="425" as="targetPoint"/>
                    </mxGeometry>
                </mxCell>
                <mxCell id="15" value="AALSPlayerController" style="html=1;" vertex="1" parent="1">
                    <mxGeometry x="392.5" y="200" width="195" height="50" as="geometry"/>
                </mxCell>
                <mxCell id="16" value="" style="endArrow=none;startArrow=diamondThin;endFill=0;startFill=1;html=1;verticalAlign=bottom;labelBackgroundColor=none;strokeWidth=1;startSize=8;endSize=8;entryX=0.5;entryY=1;entryDx=0;entryDy=0;exitX=0.5;exitY=0;exitDx=0;exitDy=0;" edge="1" parent="1" source="7" target="15">
                    <mxGeometry width="160" relative="1" as="geometry">
                        <mxPoint x="340" y="435" as="sourcePoint"/>
                        <mxPoint x="420" y="435" as="targetPoint"/>
                    </mxGeometry>
                </mxCell>
                <mxCell id="17" value="APlayerController" style="html=1;" vertex="1" parent="1">
                    <mxGeometry x="392.5" y="110" width="195" height="50" as="geometry"/>
                </mxCell>
                <mxCell id="18" value="&amp;lt;&amp;lt;extend&amp;gt;&amp;gt;" style="edgeStyle=none;html=1;startArrow=open;endArrow=none;startSize=12;verticalAlign=bottom;dashed=1;labelBackgroundColor=none;entryX=0.5;entryY=1;entryDx=0;entryDy=0;exitX=0.5;exitY=0;exitDx=0;exitDy=0;" edge="1" parent="1" source="15" target="17">
                    <mxGeometry width="160" relative="1" as="geometry">
                        <mxPoint x="500" y="410" as="sourcePoint"/>
                        <mxPoint x="500" y="350" as="targetPoint"/>
                    </mxGeometry>
                </mxCell>
                <mxCell id="25" style="edgeStyle=none;html=1;exitX=1;exitY=0.5;exitDx=0;exitDy=0;entryX=0;entryY=0.5;entryDx=0;entryDy=0;" edge="1" parent="1" source="19" target="24">
                    <mxGeometry relative="1" as="geometry"/>
                </mxCell>
                <mxCell id="19" value="AALSPlayerCameraManager" style="html=1;" vertex="1" parent="1">
                    <mxGeometry x="670" y="290" width="210" height="50" as="geometry"/>
                </mxCell>
                <mxCell id="20" value="APlayerCameraManager" style="html=1;" vertex="1" parent="1">
                    <mxGeometry x="677.5" y="190" width="195" height="50" as="geometry"/>
                </mxCell>
                <mxCell id="22" value="&amp;lt;&amp;lt;extend&amp;gt;&amp;gt;" style="edgeStyle=none;html=1;startArrow=open;endArrow=none;startSize=12;verticalAlign=bottom;dashed=1;labelBackgroundColor=none;entryX=0.5;entryY=1;entryDx=0;entryDy=0;exitX=0.5;exitY=0;exitDx=0;exitDy=0;" edge="1" parent="1" source="19" target="20">
                    <mxGeometry width="160" relative="1" as="geometry">
                        <mxPoint x="530" y="410" as="sourcePoint"/>
                        <mxPoint x="530" y="349.9999999999998" as="targetPoint"/>
                    </mxGeometry>
                </mxCell>
                <mxCell id="23" value="" style="endArrow=none;startArrow=diamondThin;endFill=0;startFill=1;html=1;verticalAlign=bottom;labelBackgroundColor=none;strokeWidth=1;startSize=8;endSize=8;entryX=0;entryY=0.5;entryDx=0;entryDy=0;exitX=1;exitY=0.5;exitDx=0;exitDy=0;" edge="1" parent="1" source="7" target="19">
                    <mxGeometry width="160" relative="1" as="geometry">
                        <mxPoint x="340" y="435" as="sourcePoint"/>
                        <mxPoint x="420" y="435" as="targetPoint"/>
                    </mxGeometry>
                </mxCell>
                <mxCell id="24" value="UALSPlayerCameraBehavior" style="html=1;" vertex="1" parent="1">
                    <mxGeometry x="990" y="290" width="195" height="50" as="geometry"/>
                </mxCell>
                <UserObject label="OnPossess" placeholders="1" name="Variable" id="27">
                    <mxCell style="text;html=1;strokeColor=none;fillColor=none;align=center;verticalAlign=middle;whiteSpace=wrap;overflow=hidden;" vertex="1" parent="1">
                        <mxGeometry x="900" y="290" width="80" height="20" as="geometry"/>
                    </mxCell>
                </UserObject>
                <mxCell id="28" value="UALSCharacterAnimInstance" style="html=1;" vertex="1" parent="1">
                    <mxGeometry x="990" y="400" width="195" height="50" as="geometry"/>
                </mxCell>
                <mxCell id="29" value="UAnimInstance" style="html=1;" vertex="1" parent="1">
                    <mxGeometry x="1290" y="350" width="135" height="50" as="geometry"/>
                </mxCell>
                <mxCell id="30" value="&amp;lt;&amp;lt;extend&amp;gt;&amp;gt;" style="edgeStyle=none;html=1;startArrow=open;endArrow=none;startSize=12;verticalAlign=bottom;dashed=1;labelBackgroundColor=none;entryX=0;entryY=0.75;entryDx=0;entryDy=0;exitX=1;exitY=0.5;exitDx=0;exitDy=0;" edge="1" parent="1" source="28" target="29">
                    <mxGeometry width="160" relative="1" as="geometry">
                        <mxPoint x="754.9999999999998" y="300" as="sourcePoint"/>
                        <mxPoint x="754.9999999999998" y="250" as="targetPoint"/>
                    </mxGeometry>
                </mxCell>
                <mxCell id="31" value="&amp;lt;&amp;lt;extend&amp;gt;&amp;gt;" style="edgeStyle=none;html=1;startArrow=open;endArrow=none;startSize=12;verticalAlign=bottom;dashed=1;labelBackgroundColor=none;exitX=1;exitY=0.5;exitDx=0;exitDy=0;entryX=0;entryY=0.25;entryDx=0;entryDy=0;" edge="1" parent="1" source="24" target="29">
                    <mxGeometry width="160" relative="1" as="geometry">
                        <mxPoint x="1097.5" y="460" as="sourcePoint"/>
                        <mxPoint x="1260" y="340" as="targetPoint"/>
                    </mxGeometry>
                </mxCell>
                <mxCell id="32" value="AAIController" style="html=1;" vertex="1" parent="1">
                    <mxGeometry x="100" y="700" width="170" height="50" as="geometry"/>
                </mxCell>
                <mxCell id="34" value="&amp;lt;&amp;lt;extend&amp;gt;&amp;gt;" style="edgeStyle=none;html=1;startArrow=open;endArrow=none;startSize=12;verticalAlign=bottom;dashed=1;labelBackgroundColor=none;entryX=0.5;entryY=1;entryDx=0;entryDy=0;exitX=0.5;exitY=0;exitDx=0;exitDy=0;" edge="1" parent="1" source="35" target="32">
                    <mxGeometry width="160" relative="1" as="geometry">
                        <mxPoint x="185" y="810" as="sourcePoint"/>
                        <mxPoint x="190" y="400" as="targetPoint"/>
                    </mxGeometry>
                </mxCell>
                <mxCell id="35" value="AALSAIController" style="html=1;" vertex="1" parent="1">
                    <mxGeometry x="100" y="800" width="170" height="50" as="geometry"/>
                </mxCell>
                <mxCell id="36" value="UBehaviorTree" style="html=1;" vertex="1" parent="1">
                    <mxGeometry x="120" y="890" width="130" height="50" as="geometry"/>
                </mxCell>
                <mxCell id="37" value="" style="endArrow=none;startArrow=diamondThin;endFill=0;startFill=1;html=1;verticalAlign=bottom;labelBackgroundColor=none;strokeWidth=1;startSize=8;endSize=8;entryX=0.5;entryY=1;entryDx=0;entryDy=0;exitX=0.5;exitY=0;exitDx=0;exitDy=0;" edge="1" parent="1" source="36" target="35">
                    <mxGeometry width="160" relative="1" as="geometry">
                        <mxPoint x="575" y="375" as="sourcePoint"/>
                        <mxPoint x="650" y="375" as="targetPoint"/>
                    </mxGeometry>
                </mxCell>
                <mxCell id="38" value="UBTTaskNode" style="html=1;" vertex="1" parent="1">
                    <mxGeometry x="330" y="790" width="130" height="50" as="geometry"/>
                </mxCell>
                <mxCell id="39" value="UALS_BTTask_SetFocusToPlayer" style="html=1;" vertex="1" parent="1">
                    <mxGeometry x="537.5" y="740" width="222.5" height="50" as="geometry"/>
                </mxCell>
                <mxCell id="40" value="UBTTask_BlackboardBase" style="html=1;" vertex="1" parent="1">
                    <mxGeometry x="550" y="840" width="192.5" height="50" as="geometry"/>
                </mxCell>
                <mxCell id="41" value="UALS_BTTask_GetRandomLocation" style="html=1;" vertex="1" parent="1">
                    <mxGeometry x="820" y="840" width="236.25" height="50" as="geometry"/>
                </mxCell>
                <mxCell id="42" value="&amp;lt;&amp;lt;extend&amp;gt;&amp;gt;" style="edgeStyle=none;html=1;startArrow=open;endArrow=none;startSize=12;verticalAlign=bottom;dashed=1;labelBackgroundColor=none;entryX=1;entryY=0.75;entryDx=0;entryDy=0;exitX=0;exitY=0.5;exitDx=0;exitDy=0;" edge="1" parent="1" source="40" target="38">
                    <mxGeometry width="160" relative="1" as="geometry">
                        <mxPoint x="445" y="590" as="sourcePoint"/>
                        <mxPoint x="445" y="540" as="targetPoint"/>
                    </mxGeometry>
                </mxCell>
                <mxCell id="43" value="&amp;lt;&amp;lt;extend&amp;gt;&amp;gt;" style="edgeStyle=none;html=1;startArrow=open;endArrow=none;startSize=12;verticalAlign=bottom;dashed=1;labelBackgroundColor=none;entryX=1;entryY=0.25;entryDx=0;entryDy=0;exitX=0;exitY=0.5;exitDx=0;exitDy=0;" edge="1" parent="1" source="39" target="38">
                    <mxGeometry width="160" relative="1" as="geometry">
                        <mxPoint x="557.5" y="915" as="sourcePoint"/>
                        <mxPoint x="520" y="837.5" as="targetPoint"/>
                    </mxGeometry>
                </mxCell>
                <mxCell id="44" value="&amp;lt;&amp;lt;extend&amp;gt;&amp;gt;" style="edgeStyle=none;html=1;startArrow=open;endArrow=none;startSize=12;verticalAlign=bottom;dashed=1;labelBackgroundColor=none;entryX=1;entryY=0.5;entryDx=0;entryDy=0;exitX=0;exitY=0.5;exitDx=0;exitDy=0;" edge="1" parent="1" source="41" target="40">
                    <mxGeometry width="160" relative="1" as="geometry">
                        <mxPoint x="560" y="875" as="sourcePoint"/>
                        <mxPoint x="470" y="837.5" as="targetPoint"/>
                    </mxGeometry>
                </mxCell>
                <mxCell id="47" value="AI" style="text;strokeColor=none;fillColor=none;html=1;fontSize=24;fontStyle=1;verticalAlign=middle;align=center;" vertex="1" parent="1">
                    <mxGeometry x="10" y="620" width="100" height="40" as="geometry"/>
                </mxCell>
                <mxCell id="48" value="Character" style="text;strokeColor=none;fillColor=none;html=1;fontSize=24;fontStyle=1;verticalAlign=middle;align=center;" vertex="1" parent="1">
                    <mxGeometry y="50" width="180" height="40" as="geometry"/>
                </mxCell>
            </root>
        </mxGraphModel>
    </diagram>
</mxfile>